  0
SECTION
  2
HEADER
  9
$ACADVER
  1
AC1009
  0
ENDSEC
  0
SECTION
  2
ENTITIES
  0
POLYLINE
  5
90
  8
Layer_1
  62
1
  66
1
  10
0
  20
0
  30
0
  0
VERTEX
  5
90
  8
Layer_1
  10
98.5
  20
58.750008
  0
VERTEX
  5
91
  8
Layer_1
  10
90.5
  20
58.750008
  0
VERTEX
  5
92
  8
Layer_1
  10
90.5
  20
55.750008
  0
VERTEX
  5
93
  8
Layer_1
  10
84.5
  20
55.750008
  0
VERTEX
  5
94
  8
Layer_1
  10
84.5
  20
58.750008
  0
VERTEX
  5
95
  8
Layer_1
  10
78.5
  20
58.750008
  0
VERTEX
  5
96
  8
Layer_1
  10
78.5
  20
55.750008
  0
VERTEX
  5
97
  8
Layer_1
  10
72.5
  20
55.750008
  0
VERTEX
  5
98
  8
Layer_1
  10
72.5
  20
58.750008
  0
VERTEX
  5
99
  8
Layer_1
  10
66.5
  20
58.750008
  0
VERTEX
  5
9a
  8
Layer_1
  10
66.5
  20
55.750008
  0
VERTEX
  5
9b
  8
Layer_1
  10
60.5
  20
55.750008
  0
VERTEX
  5
9c
  8
Layer_1
  10
60.5
  20
58.750008
  0
VERTEX
  5
9d
  8
Layer_1
  10
54.5
  20
58.750008
  0
VERTEX
  5
9e
  8
Layer_1
  10
54.5
  20
55.750008
  0
VERTEX
  5
9f
  8
Layer_1
  10
48.5
  20
55.750008
  0
VERTEX
  5
a0
  8
Layer_1
  10
48.5
  20
58.750008
  0
VERTEX
  5
a1
  8
Layer_1
  10
42.5
  20
58.750008
  0
VERTEX
  5
a2
  8
Layer_1
  10
42.5
  20
55.750008
  0
VERTEX
  5
a3
  8
Layer_1
  10
36.5
  20
55.750008
  0
VERTEX
  5
a4
  8
Layer_1
  10
36.5
  20
58.750008
  0
VERTEX
  5
a5
  8
Layer_1
  10
30.5
  20
58.750008
  0
VERTEX
  5
a6
  8
Layer_1
  10
30.5
  20
55.750008
  0
VERTEX
  5
a7
  8
Layer_1
  10
24.5
  20
55.750008
  0
VERTEX
  5
a8
  8
Layer_1
  10
24.5
  20
58.750008
  0
VERTEX
  5
a9
  8
Layer_1
  10
18.5
  20
58.750008
  0
VERTEX
  5
aa
  8
Layer_1
  10
18.5
  20
55.750008
  0
VERTEX
  5
ab
  8
Layer_1
  10
12.5
  20
55.750008
  0
VERTEX
  5
ac
  8
Layer_1
  10
12.5
  20
58.750008
  0
VERTEX
  5
ad
  8
Layer_1
  10
4.5
  20
58.750008
  0
VERTEX
  5
ae
  8
Layer_1
  10
4.5
  20
52.250008
  0
VERTEX
  5
af
  8
Layer_1
  10
1.5
  20
52.250008
  0
VERTEX
  5
b0
  8
Layer_1
  10
1.5
  20
46.250008
  0
VERTEX
  5
b1
  8
Layer_1
  10
4.5
  20
46.250008
  0
VERTEX
  5
b2
  8
Layer_1
  10
4.5
  20
40.250008
  0
VERTEX
  5
b3
  8
Layer_1
  10
1.5
  20
40.250008
  0
VERTEX
  5
b4
  8
Layer_1
  10
1.5
  20
34.250008
  0
VERTEX
  5
b5
  8
Layer_1
  10
4.5
  20
34.250008
  0
VERTEX
  5
b6
  8
Layer_1
  10
4.5
  20
28.250008
  0
VERTEX
  5
b7
  8
Layer_1
  10
1.5
  20
28.250008
  0
VERTEX
  5
b8
  8
Layer_1
  10
1.5
  20
22.250008
  0
VERTEX
  5
b9
  8
Layer_1
  10
4.5
  20
22.250008
  0
VERTEX
  5
ba
  8
Layer_1
  10
4.5
  20
16.250008
  0
VERTEX
  5
bb
  8
Layer_1
  10
1.5
  20
16.250008
  0
VERTEX
  5
bc
  8
Layer_1
  10
1.5
  20
10.250008
  0
VERTEX
  5
bd
  8
Layer_1
  10
4.5
  20
10.250008
  0
VERTEX
  5
be
  8
Layer_1
  10
4.5
  20
3.7500076
  0
VERTEX
  5
bf
  8
Layer_1
  10
98.499992
  20
3.75
  0
VERTEX
  5
c0
  8
Layer_1
  10
98.499992
  20
10.25
  0
VERTEX
  5
c1
  8
Layer_1
  10
101.49999
  20
10.25
  0
VERTEX
  5
c2
  8
Layer_1
  10
101.49999
  20
16.25
  0
VERTEX
  5
c3
  8
Layer_1
  10
98.499992
  20
16.25
  0
VERTEX
  5
c4
  8
Layer_1
  10
98.499992
  20
22.250008
  0
VERTEX
  5
c5
  8
Layer_1
  10
101.49999
  20
22.250008
  0
VERTEX
  5
c6
  8
Layer_1
  10
101.5
  20
28.250008
  0
VERTEX
  5
c7
  8
Layer_1
  10
98.5
  20
28.250008
  0
VERTEX
  5
c8
  8
Layer_1
  10
98.5
  20
34.250008
  0
VERTEX
  5
c9
  8
Layer_1
  10
101.5
  20
34.250008
  0
VERTEX
  5
ca
  8
Layer_1
  10
101.5
  20
40.250008
  0
VERTEX
  5
cb
  8
Layer_1
  10
98.5
  20
40.250008
  0
VERTEX
  5
cc
  8
Layer_1
  10
98.5
  20
46.250008
  0
VERTEX
  5
cd
  8
Layer_1
  10
101.5
  20
46.250008
  0
VERTEX
  5
ce
  8
Layer_1
  10
101.5
  20
52.250008
  0
VERTEX
  5
cf
  8
Layer_1
  10
98.5
  20
52.250008
  0
VERTEX
  5
d0
  8
Layer_1
  10
98.5
  20
58.750008
  0
SEQEND
  0
CIRCLE
  5
d2
  8
Layer_1
  62
1
  10
83.300003
  20
13.75
  30
0
  40
1.8000002
  0
CIRCLE
  5
d2
  8
Layer_1
  62
1
  10
26.299999
  20
13.75
  30
0
  40
1.8000002
  0
POLYLINE
  5
d2
  8
Layer_1
  62
1
  66
1
  10
0
  20
0
  30
0
  0
VERTEX
  5
d2
  8
Layer_1
  10
99
  20
116.50001
  0
VERTEX
  5
d3
  8
Layer_1
  10
91
  20
116.50001
  0
VERTEX
  5
d4
  8
Layer_1
  10
91
  20
113.50001
  0
VERTEX
  5
d5
  8
Layer_1
  10
85
  20
113.50001
  0
VERTEX
  5
d6
  8
Layer_1
  10
85
  20
116.50001
  0
VERTEX
  5
d7
  8
Layer_1
  10
79
  20
116.50001
  0
VERTEX
  5
d8
  8
Layer_1
  10
79
  20
113.50001
  0
VERTEX
  5
d9
  8
Layer_1
  10
73
  20
113.50001
  0
VERTEX
  5
da
  8
Layer_1
  10
73
  20
116.50001
  0
VERTEX
  5
db
  8
Layer_1
  10
67
  20
116.50001
  0
VERTEX
  5
dc
  8
Layer_1
  10
67
  20
113.50001
  0
VERTEX
  5
dd
  8
Layer_1
  10
61
  20
113.50001
  0
VERTEX
  5
de
  8
Layer_1
  10
61
  20
116.50001
  0
VERTEX
  5
df
  8
Layer_1
  10
55
  20
116.50001
  0
VERTEX
  5
e0
  8
Layer_1
  10
55
  20
113.50001
  0
VERTEX
  5
e1
  8
Layer_1
  10
49
  20
113.50001
  0
VERTEX
  5
e2
  8
Layer_1
  10
49
  20
116.50001
  0
VERTEX
  5
e3
  8
Layer_1
  10
43
  20
116.50001
  0
VERTEX
  5
e4
  8
Layer_1
  10
43
  20
113.50001
  0
VERTEX
  5
e5
  8
Layer_1
  10
37
  20
113.50001
  0
VERTEX
  5
e6
  8
Layer_1
  10
37
  20
116.50001
  0
VERTEX
  5
e7
  8
Layer_1
  10
31
  20
116.50001
  0
VERTEX
  5
e8
  8
Layer_1
  10
31
  20
113.50001
  0
VERTEX
  5
e9
  8
Layer_1
  10
25
  20
113.50001
  0
VERTEX
  5
ea
  8
Layer_1
  10
25
  20
116.50001
  0
VERTEX
  5
eb
  8
Layer_1
  10
19
  20
116.50001
  0
VERTEX
  5
ec
  8
Layer_1
  10
19
  20
113.50001
  0
VERTEX
  5
ed
  8
Layer_1
  10
13
  20
113.50001
  0
VERTEX
  5
ee
  8
Layer_1
  10
13
  20
116.50001
  0
VERTEX
  5
ef
  8
Layer_1
  10
5
  20
116.50001
  0
VERTEX
  5
f0
  8
Layer_1
  10
5
  20
110.00001
  0
VERTEX
  5
f1
  8
Layer_1
  10
2
  20
110.00001
  0
VERTEX
  5
f2
  8
Layer_1
  10
2
  20
104.00001
  0
VERTEX
  5
f3
  8
Layer_1
  10
5
  20
104.00001
  0
VERTEX
  5
f4
  8
Layer_1
  10
5
  20
98.000008
  0
VERTEX
  5
f5
  8
Layer_1
  10
2
  20
98.000008
  0
VERTEX
  5
f6
  8
Layer_1
  10
2
  20
92.000008
  0
VERTEX
  5
f7
  8
Layer_1
  10
5
  20
92.000008
  0
VERTEX
  5
f8
  8
Layer_1
  10
5
  20
86.000008
  0
VERTEX
  5
f9
  8
Layer_1
  10
2
  20
86.000008
  0
VERTEX
  5
fa
  8
Layer_1
  10
2
  20
80.000008
  0
VERTEX
  5
fb
  8
Layer_1
  10
5
  20
80.000008
  0
VERTEX
  5
fc
  8
Layer_1
  10
5
  20
74.000008
  0
VERTEX
  5
fd
  8
Layer_1
  10
2
  20
74.000008
  0
VERTEX
  5
fe
  8
Layer_1
  10
2
  20
68.000008
  0
VERTEX
  5
ff
  8
Layer_1
  10
5
  20
68.000008
  0
VERTEX
  5
100
  8
Layer_1
  10
5
  20
61.500008
  0
VERTEX
  5
101
  8
Layer_1
  10
98.999992
  20
61.5
  0
VERTEX
  5
102
  8
Layer_1
  10
98.999992
  20
68
  0
VERTEX
  5
103
  8
Layer_1
  10
101.99999
  20
68
  0
VERTEX
  5
104
  8
Layer_1
  10
101.99999
  20
74
  0
VERTEX
  5
105
  8
Layer_1
  10
98.999992
  20
74
  0
VERTEX
  5
106
  8
Layer_1
  10
98.999992
  20
80.000008
  0
VERTEX
  5
107
  8
Layer_1
  10
101.99999
  20
80.000008
  0
VERTEX
  5
108
  8
Layer_1
  10
102
  20
86.000008
  0
VERTEX
  5
109
  8
Layer_1
  10
99
  20
86.000008
  0
VERTEX
  5
10a
  8
Layer_1
  10
99
  20
92.000008
  0
VERTEX
  5
10b
  8
Layer_1
  10
102
  20
92.000008
  0
VERTEX
  5
10c
  8
Layer_1
  10
102
  20
98.000008
  0
VERTEX
  5
10d
  8
Layer_1
  10
99
  20
98.000008
  0
VERTEX
  5
10e
  8
Layer_1
  10
99
  20
104.00001
  0
VERTEX
  5
10f
  8
Layer_1
  10
102
  20
104.00001
  0
VERTEX
  5
110
  8
Layer_1
  10
102
  20
110.00001
  0
VERTEX
  5
111
  8
Layer_1
  10
99
  20
110.00001
  0
VERTEX
  5
112
  8
Layer_1
  10
99
  20
116.50001
  0
SEQEND
  0
CIRCLE
  5
114
  8
Layer_1
  62
1
  10
83.800003
  20
71.5
  30
0
  40
1.8000002
  0
CIRCLE
  5
114
  8
Layer_1
  62
1
  10
26.799999
  20
71.5
  30
0
  40
1.8000002
  0
POLYLINE
  5
114
  8
Layer_1
  62
1
  66
1
  10
0
  20
0
  30
0
  0
VERTEX
  5
114
  8
Layer_1
  10
100.00002
  20
175.5
  0
VERTEX
  5
115
  8
Layer_1
  10
92.000015
  20
175.5
  0
VERTEX
  5
116
  8
Layer_1
  10
92.000015
  20
172.5
  0
VERTEX
  5
117
  8
Layer_1
  10
86.000015
  20
172.5
  0
VERTEX
  5
118
  8
Layer_1
  10
86.000015
  20
175.5
  0
VERTEX
  5
119
  8
Layer_1
  10
80.000015
  20
175.5
  0
VERTEX
  5
11a
  8
Layer_1
  10
80.000015
  20
172.5
  0
VERTEX
  5
11b
  8
Layer_1
  10
74.000015
  20
172.5
  0
VERTEX
  5
11c
  8
Layer_1
  10
74.000015
  20
175.5
  0
VERTEX
  5
11d
  8
Layer_1
  10
68.000015
  20
175.5
  0
VERTEX
  5
11e
  8
Layer_1
  10
68.000015
  20
172.5
  0
VERTEX
  5
11f
  8
Layer_1
  10
62.000011
  20
172.5
  0
VERTEX
  5
120
  8
Layer_1
  10
62.000011
  20
175.5
  0
VERTEX
  5
121
  8
Layer_1
  10
56.000011
  20
175.5
  0
VERTEX
  5
122
  8
Layer_1
  10
56.000011
  20
172.5
  0
VERTEX
  5
123
  8
Layer_1
  10
50.000011
  20
172.5
  0
VERTEX
  5
124
  8
Layer_1
  10
50.000011
  20
175.5
  0
VERTEX
  5
125
  8
Layer_1
  10
44.000015
  20
175.5
  0
VERTEX
  5
126
  8
Layer_1
  10
44.000015
  20
172.5
  0
VERTEX
  5
127
  8
Layer_1
  10
38.000015
  20
172.5
  0
VERTEX
  5
128
  8
Layer_1
  10
38.000015
  20
175.5
  0
VERTEX
  5
129
  8
Layer_1
  10
32.000015
  20
175.5
  0
VERTEX
  5
12a
  8
Layer_1
  10
32.000015
  20
172.5
  0
VERTEX
  5
12b
  8
Layer_1
  10
26.000015
  20
172.5
  0
VERTEX
  5
12c
  8
Layer_1
  10
26.000015
  20
175.5
  0
VERTEX
  5
12d
  8
Layer_1
  10
20.000015
  20
175.50002
  0
VERTEX
  5
12e
  8
Layer_1
  10
20.000015
  20
172.50002
  0
VERTEX
  5
12f
  8
Layer_1
  10
14.000015
  20
172.50002
  0
VERTEX
  5
130
  8
Layer_1
  10
14.000015
  20
175.50002
  0
VERTEX
  5
131
  8
Layer_1
  10
6.0000153
  20
175.50002
  0
VERTEX
  5
132
  8
Layer_1
  10
3.0000153
  20
175.50002
  0
VERTEX
  5
133
  8
Layer_1
  10
3.0000076
  20
169.00002
  0
VERTEX
  5
134
  8
Layer_1
  10
6.0000076
  20
169.00002
  0
VERTEX
  5
135
  8
Layer_1
  10
6.0000076
  20
163.00002
  0
VERTEX
  5
136
  8
Layer_1
  10
3.0000076
  20
163.00002
  0
VERTEX
  5
137
  8
Layer_1
  10
3.0000076
  20
157.00002
  0
VERTEX
  5
138
  8
Layer_1
  10
6.0000076
  20
157.00002
  0
VERTEX
  5
139
  8
Layer_1
  10
6.0000076
  20
151.00002
  0
VERTEX
  5
13a
  8
Layer_1
  10
3.0000076
  20
151.00002
  0
VERTEX
  5
13b
  8
Layer_1
  10
3.0000076
  20
145.00002
  0
VERTEX
  5
13c
  8
Layer_1
  10
6.0000076
  20
145.00002
  0
VERTEX
  5
13d
  8
Layer_1
  10
6.0000076
  20
139.00002
  0
VERTEX
  5
13e
  8
Layer_1
  10
3.0000076
  20
139.00002
  0
VERTEX
  5
13f
  8
Layer_1
  10
3.0000076
  20
133.00002
  0
VERTEX
  5
140
  8
Layer_1
  10
6.0000076
  20
133.00002
  0
VERTEX
  5
141
  8
Layer_1
  10
6.0000076
  20
127.00002
  0
VERTEX
  5
142
  8
Layer_1
  10
3.0000076
  20
127.00002
  0
VERTEX
  5
143
  8
Layer_1
  10
3.0000076
  20
120.50002
  0
VERTEX
  5
144
  8
Layer_1
  10
6.0000076
  20
120.50002
  0
VERTEX
  5
145
  8
Layer_1
  10
100.00001
  20
120.5
  0
VERTEX
  5
146
  8
Layer_1
  10
103.00001
  20
120.5
  0
VERTEX
  5
147
  8
Layer_1
  10
103.00001
  20
127
  0
VERTEX
  5
148
  8
Layer_1
  10
100.00001
  20
127
  0
VERTEX
  5
149
  8
Layer_1
  10
100.00001
  20
133
  0
VERTEX
  5
14a
  8
Layer_1
  10
103.00001
  20
133
  0
VERTEX
  5
14b
  8
Layer_1
  10
103.00001
  20
139
  0
VERTEX
  5
14c
  8
Layer_1
  10
100.00001
  20
139
  0
VERTEX
  5
14d
  8
Layer_1
  10
100.00001
  20
145
  0
VERTEX
  5
14e
  8
Layer_1
  10
103.00001
  20
145
  0
VERTEX
  5
14f
  8
Layer_1
  10
103.00001
  20
151
  0
VERTEX
  5
150
  8
Layer_1
  10
100.00001
  20
151
  0
VERTEX
  5
151
  8
Layer_1
  10
100.00001
  20
157
  0
VERTEX
  5
152
  8
Layer_1
  10
103.00001
  20
157
  0
VERTEX
  5
153
  8
Layer_1
  10
103.00001
  20
163
  0
VERTEX
  5
154
  8
Layer_1
  10
100.00001
  20
163
  0
VERTEX
  5
155
  8
Layer_1
  10
100.00002
  20
169
  0
VERTEX
  5
156
  8
Layer_1
  10
103.00002
  20
169
  0
VERTEX
  5
157
  8
Layer_1
  10
103.00002
  20
175.5
  0
VERTEX
  5
158
  8
Layer_1
  10
100.00002
  20
175.5
  0
SEQEND
  0
POLYLINE
  5
15a
  8
Layer_0
  62
0
  66
1
  10
0
  20
0
  30
0
  0
VERTEX
  5
15a
  8
Layer_0
  10
42.071434
  20
141.47516
  42
0.13411078
  0
VERTEX
  5
15b
  8
Layer_0
  10
44.209129
  20
142.23297
  42
0.35649003
  0
VERTEX
  5
15c
  8
Layer_0
  10
45.229149
  20
145.84723
  42
0.17879187
  0
VERTEX
  5
15d
  8
Layer_0
  10
43.649559
  20
147.28619
  42
0.043513521
  0
VERTEX
  5
15e
  8
Layer_0
  10
41.273094
  20
147.97125
  0
VERTEX
  5
15f
  8
Layer_0
  10
40.860497
  20
148.06891
  42
-0.073206972
  0
VERTEX
  5
160
  8
Layer_0
  10
39.253563
  20
148.64264
  42
-0.37424488
  0
VERTEX
  5
161
  8
Layer_0
  10
38.860497
  20
150.3067
  42
-0.2191658
  0
VERTEX
  5
162
  8
Layer_0
  10
40.067039
  20
151.1817
  42
-0.13551905
  0
VERTEX
  5
163
  8
Layer_0
  10
42.492332
  20
151.09674
  42
-0.27855707
  0
VERTEX
  5
164
  8
Layer_0
  10
43.760399
  20
149.48834
  0
VERTEX
  5
165
  8
Layer_0
  10
43.796043
  20
149.24176
  0
VERTEX
  5
166
  8
Layer_0
  10
45.158348
  20
149.3443
  42
0.17752475
  0
VERTEX
  5
167
  8
Layer_0
  10
44.35952
  20
151.38727
  42
0.13951859
  0
VERTEX
  5
168
  8
Layer_0
  10
42.755028
  20
152.336
  42
0.13519422
  0
VERTEX
  5
169
  8
Layer_0
  10
39.608055
  20
152.34625
  42
0.14130085
  0
VERTEX
  5
16a
  8
Layer_0
  10
38.062157
  20
151.44537
  42
0.29368285
  0
VERTEX
  5
16b
  8
Layer_0
  10
37.555809
  20
148.56403
  42
0.1709733
  0
VERTEX
  5
16c
  8
Layer_0
  10
38.866844
  20
147.2569
  42
0.052124091
  0
VERTEX
  5
16d
  8
Layer_0
  10
40.583641
  20
146.67487
  0
VERTEX
  5
16e
  8
Layer_0
  10
41.613914
  20
146.42096
  42
-0.050428001
  0
VERTEX
  5
16f
  8
Layer_0
  10
43.164207
  20
145.92731
  42
-0.16117295
  0
VERTEX
  5
170
  8
Layer_0
  10
43.946434
  20
145.23297
  42
-0.37572348
  0
VERTEX
  5
171
  8
Layer_0
  10
43.423485
  20
143.25153
  42
-0.13152414
  0
VERTEX
  5
172
  8
Layer_0
  10
41.8395
  20
142.73834
  42
-0.15113039
  0
VERTEX
  5
173
  8
Layer_0
  10
39.454735
  20
143.21344
  42
-0.19541117
  0
VERTEX
  5
174
  8
Layer_0
  10
38.431786
  20
144.46539
  42
-0.050944278
  0
VERTEX
  5
175
  8
Layer_0
  10
38.273582
  20
145.19879
  0
VERTEX
  5
176
  8
Layer_0
  10
36.93325
  20
145.0816
  42
0.34093673
  0
VERTEX
  5
177
  8
Layer_0
  10
39.590477
  20
141.68756
  42
0.086989387
  0
VERTEX
  5
178
  8
Layer_0
  10
42.071434
  20
141.47516
  0
SEQEND
  0
POLYLINE
  5
17a
  8
Layer_0
  62
0
  66
1
  10
0
  20
0
  30
0
  0
VERTEX
  5
17a
  8
Layer_0
  10
17.98745
  20
145.99713
  0
VERTEX
  5
17b
  8
Layer_0
  10
20.741356
  20
145.99713
  42
0.072468769
  0
VERTEX
  5
17c
  8
Layer_0
  10
22.667625
  20
146.23444
  42
0.2482127
  0
VERTEX
  5
17d
  8
Layer_0
  10
24.544579
  20
147.99957
  42
0.23028248
  0
VERTEX
  5
17e
  8
Layer_0
  10
24.260399
  20
151.04352
  42
0.19820823
  0
VERTEX
  5
17f
  8
Layer_0
  10
22.629539
  20
152.1861
  42
0.060827581
  0
VERTEX
  5
180
  8
Layer_0
  10
20.616844
  20
152.3692
  0
VERTEX
  5
181
  8
Layer_0
  10
16.566551
  20
152.3692
  0
VERTEX
  5
182
  8
Layer_0
  10
16.566551
  20
141.6319
  0
VERTEX
  5
183
  8
Layer_0
  10
17.98745
  20
141.6319
  0
VERTEX
  5
184
  8
Layer_0
  10
17.98745
  20
145.99713
  0
SEQEND
  0
POLYLINE
  5
186
  8
Layer_0
  62
0
  66
1
  10
0
  20
0
  30
0
  0
VERTEX
  5
186
  8
Layer_0
  10
31.265282
  20
141.45807
  42
0.12887469
  0
VERTEX
  5
187
  8
Layer_0
  10
33.395164
  20
142.04547
  42
0.22739099
  0
VERTEX
  5
188
  8
Layer_0
  10
34.940575
  20
144.4024
  42
0.045538209
  0
VERTEX
  5
189
  8
Layer_0
  10
35.083641
  20
146.16559
  0
VERTEX
  5
18a
  8
Layer_0
  10
35.083641
  20
152.3692
  0
VERTEX
  5
18b
  8
Layer_0
  10
33.662743
  20
152.3692
  0
VERTEX
  5
18c
  8
Layer_0
  10
33.662743
  20
146.17291
  42
-0.083166355
  0
VERTEX
  5
18d
  8
Layer_0
  10
33.402
  20
144.15826
  42
-0.25942509
  0
VERTEX
  5
18e
  8
Layer_0
  10
32.104149
  20
142.90826
  42
-0.15064509
  0
VERTEX
  5
18f
  8
Layer_0
  10
29.547508
  20
142.93219
  42
-0.28753597
  0
VERTEX
  5
190
  8
Layer_0
  10
28.161278
  20
144.71198
  42
-0.041055269
  0
VERTEX
  5
191
  8
Layer_0
  10
28.059715
  20
146.17291
  0
VERTEX
  5
192
  8
Layer_0
  10
28.059715
  20
152.3692
  0
VERTEX
  5
193
  8
Layer_0
  10
26.638817
  20
152.3692
  0
VERTEX
  5
194
  8
Layer_0
  10
26.638817
  20
146.16559
  42
0.079980393
  0
VERTEX
  5
195
  8
Layer_0
  10
26.952782
  20
143.73151
  42
0.26275333
  0
VERTEX
  5
196
  8
Layer_0
  10
29.215477
  20
141.65192
  42
0.078212345
  0
VERTEX
  5
197
  8
Layer_0
  10
31.265282
  20
141.45807
  0
SEQEND
  0
POLYLINE
  5
199
  8
Layer_0
  62
0
  66
1
  10
0
  20
0
  30
0
  0
VERTEX
  5
199
  8
Layer_0
  10
48.931297
  20
146.69293
  0
VERTEX
  5
19a
  8
Layer_0
  10
54.512352
  20
146.69293
  0
VERTEX
  5
19b
  8
Layer_0
  10
54.512352
  20
141.6319
  0
VERTEX
  5
19c
  8
Layer_0
  10
55.93325
  20
141.6319
  0
VERTEX
  5
19d
  8
Layer_0
  10
55.93325
  20
152.3692
  0
VERTEX
  5
19e
  8
Layer_0
  10
54.512352
  20
152.3692
  0
VERTEX
  5
19f
  8
Layer_0
  10
54.512352
  20
147.96002
  0
VERTEX
  5
1a0
  8
Layer_0
  10
48.931297
  20
147.96002
  0
VERTEX
  5
1a1
  8
Layer_0
  10
48.931297
  20
152.3692
  0
VERTEX
  5
1a2
  8
Layer_0
  10
47.510399
  20
152.3692
  0
VERTEX
  5
1a3
  8
Layer_0
  10
47.510399
  20
141.6319
  0
VERTEX
  5
1a4
  8
Layer_0
  10
48.931297
  20
141.6319
  0
VERTEX
  5
1a5
  8
Layer_0
  10
48.931297
  20
146.69293
  0
SEQEND
  0
POLYLINE
  5
1a7
  8
Layer_0
  62
0
  70
1
  66
1
  10
0
  20
0
  30
0
  0
VERTEX
  5
1a7
  8
Layer_0
  10
17.98745
  20
147.26422
  0
VERTEX
  5
1a8
  8
Layer_0
  10
17.98745
  20
151.10211
  42
-0.0031521885
  0
VERTEX
  5
1a9
  8
Layer_0
  10
20.966454
  20
151.10065
  42
-0.055518992
  0
VERTEX
  5
1aa
  8
Layer_0
  10
22.059715
  20
151.0069
  42
-0.30404111
  0
VERTEX
  5
1ab
  8
Layer_0
  10
23.276512
  20
149.54449
  42
-0.18782642
  0
VERTEX
  5
1ac
  8
Layer_0
  10
22.972313
  20
148.05914
  42
-0.18736416
  0
VERTEX
  5
1ad
  8
Layer_0
  10
21.940575
  20
147.39264
  42
-0.063302232
  0
VERTEX
  5
1ae
  8
Layer_0
  10
20.763329
  20
147.26422
  0
SEQEND
  0
CIRCLE
  5
1b0
  8
Layer_1
  62
1
  10
78.250023
  20
147
  30
0
  40
6.25
  0
POLYLINE
  5
1b0
  8
Layer_1
  62
1
  66
1
  10
0
  20
0
  30
0
  0
VERTEX
  5
1b0
  8
Layer_1
  10
291.5
  20
6.9999924
  0
VERTEX
  5
1b1
  8
Layer_1
  10
286.5
  20
6.9999924
  0
VERTEX
  5
1b2
  8
Layer_1
  10
286.5
  20
15.999992
  0
VERTEX
  5
1b3
  8
Layer_1
  10
291.5
  20
15.999992
  0
VERTEX
  5
1b4
  8
Layer_1
  10
291.5
  20
6.9999924
  0
SEQEND
  0
POLYLINE
  5
1b6
  8
Layer_1
  62
1
  66
1
  10
0
  20
0
  30
0
  0
VERTEX
  5
1b6
  8
Layer_1
  10
336
  20
97.999992
  0
VERTEX
  5
1b7
  8
Layer_1
  10
328
  20
97.999992
  0
VERTEX
  5
1b8
  8
Layer_1
  10
328
  20
100.99999
  0
VERTEX
  5
1b9
  8
Layer_1
  10
322
  20
100.99999
  0
VERTEX
  5
1ba
  8
Layer_1
  10
322
  20
97.999992
  0
VERTEX
  5
1bb
  8
Layer_1
  10
316
  20
97.999992
  0
VERTEX
  5
1bc
  8
Layer_1
  10
316
  20
100.99999
  0
VERTEX
  5
1bd
  8
Layer_1
  10
310
  20
100.99999
  0
VERTEX
  5
1be
  8
Layer_1
  10
310
  20
97.999992
  0
VERTEX
  5
1bf
  8
Layer_1
  10
304
  20
98
  0
VERTEX
  5
1c0
  8
Layer_1
  10
304
  20
101
  0
VERTEX
  5
1c1
  8
Layer_1
  10
298
  20
101
  0
VERTEX
  5
1c2
  8
Layer_1
  10
298
  20
98
  0
VERTEX
  5
1c3
  8
Layer_1
  10
292
  20
98
  0
VERTEX
  5
1c4
  8
Layer_1
  10
292
  20
101
  0
VERTEX
  5
1c5
  8
Layer_1
  10
286
  20
101
  0
VERTEX
  5
1c6
  8
Layer_1
  10
286
  20
98
  0
VERTEX
  5
1c7
  8
Layer_1
  10
280
  20
98
  0
VERTEX
  5
1c8
  8
Layer_1
  10
280
  20
101
  0
VERTEX
  5
1c9
  8
Layer_1
  10
274
  20
101
  0
VERTEX
  5
1ca
  8
Layer_1
  10
274
  20
98
  0
VERTEX
  5
1cb
  8
Layer_1
  10
268
  20
98
  0
VERTEX
  5
1cc
  8
Layer_1
  10
268
  20
101
  0
VERTEX
  5
1cd
  8
Layer_1
  10
262
  20
101
  0
VERTEX
  5
1ce
  8
Layer_1
  10
262
  20
98
  0
VERTEX
  5
1cf
  8
Layer_1
  10
256
  20
98
  0
VERTEX
  5
1d0
  8
Layer_1
  10
256
  20
101
  0
VERTEX
  5
1d1
  8
Layer_1
  10
250
  20
101
  0
VERTEX
  5
1d2
  8
Layer_1
  10
250
  20
98
  0
VERTEX
  5
1d3
  8
Layer_1
  10
242
  20
98
  0
VERTEX
  5
1d4
  8
Layer_1
  10
242
  20
90
  0
VERTEX
  5
1d5
  8
Layer_1
  10
239
  20
90
  0
VERTEX
  5
1d6
  8
Layer_1
  10
239
  20
84
  0
VERTEX
  5
1d7
  8
Layer_1
  10
242
  20
84
  0
VERTEX
  5
1d8
  8
Layer_1
  10
242
  20
78
  0
VERTEX
  5
1d9
  8
Layer_1
  10
239
  20
78
  0
VERTEX
  5
1da
  8
Layer_1
  10
239
  20
72
  0
VERTEX
  5
1db
  8
Layer_1
  10
242
  20
72
  0
VERTEX
  5
1dc
  8
Layer_1
  10
242
  20
66
  0
VERTEX
  5
1dd
  8
Layer_1
  10
239
  20
66
  0
VERTEX
  5
1de
  8
Layer_1
  10
239
  20
60
  0
VERTEX
  5
1df
  8
Layer_1
  10
242
  20
60
  0
VERTEX
  5
1e0
  8
Layer_1
  10
242
  20
54
  0
VERTEX
  5
1e1
  8
Layer_1
  10
239
  20
54.000004
  0
VERTEX
  5
1e2
  8
Layer_1
  10
239
  20
48.000004
  0
VERTEX
  5
1e3
  8
Layer_1
  10
242
  20
48
  0
VERTEX
  5
1e4
  8
Layer_1
  10
242
  20
42
  0
VERTEX
  5
1e5
  8
Layer_1
  10
239
  20
42.000004
  0
VERTEX
  5
1e6
  8
Layer_1
  10
239
  20
36.000004
  0
VERTEX
  5
1e7
  8
Layer_1
  10
242
  20
36
  0
VERTEX
  5
1e8
  8
Layer_1
  10
242
  20
30
  0
VERTEX
  5
1e9
  8
Layer_1
  10
239
  20
30.000004
  0
VERTEX
  5
1ea
  8
Layer_1
  10
239
  20
24.000004
  0
VERTEX
  5
1eb
  8
Layer_1
  10
242
  20
24
  0
VERTEX
  5
1ec
  8
Layer_1
  10
242
  20
18.000002
  0
VERTEX
  5
1ed
  8
Layer_1
  10
239
  20
18.000002
  0
VERTEX
  5
1ee
  8
Layer_1
  10
239
  20
12.000002
  0
VERTEX
  5
1ef
  8
Layer_1
  10
242
  20
12.000002
  0
VERTEX
  5
1f0
  8
Layer_1
  10
242
  20
4.0000019
  0
VERTEX
  5
1f1
  8
Layer_1
  10
250
  20
4.000001
  0
VERTEX
  5
1f2
  8
Layer_1
  10
250
  20
1.000001
  0
VERTEX
  5
1f3
  8
Layer_1
  10
256
  20
1.000001
  0
VERTEX
  5
1f4
  8
Layer_1
  10
256
  20
4.000001
  0
VERTEX
  5
1f5
  8
Layer_1
  10
262
  20
4
  0
VERTEX
  5
1f6
  8
Layer_1
  10
262
  20
1
  0
VERTEX
  5
1f7
  8
Layer_1
  10
268
  20
0.99999905
  0
VERTEX
  5
1f8
  8
Layer_1
  10
268
  20
3.999999
  0
VERTEX
  5
1f9
  8
Layer_1
  10
274
  20
3.999999
  0
VERTEX
  5
1fa
  8
Layer_1
  10
274
  20
0.99999905
  0
VERTEX
  5
1fb
  8
Layer_1
  10
280
  20
0.99999809
  0
VERTEX
  5
1fc
  8
Layer_1
  10
280
  20
3.9999981
  0
VERTEX
  5
1fd
  8
Layer_1
  10
286
  20
3.9999981
  0
VERTEX
  5
1fe
  8
Layer_1
  10
286
  20
0.99999809
  0
VERTEX
  5
1ff
  8
Layer_1
  10
292
  20
0.99999714
  0
VERTEX
  5
200
  8
Layer_1
  10
292
  20
3.9999971
  0
VERTEX
  5
201
  8
Layer_1
  10
298
  20
3.9999971
  0
VERTEX
  5
202
  8
Layer_1
  10
298
  20
0.99999714
  0
VERTEX
  5
203
  8
Layer_1
  10
304
  20
0.99999619
  0
VERTEX
  5
204
  8
Layer_1
  10
304
  20
3.9999962
  0
VERTEX
  5
205
  8
Layer_1
  10
310
  20
3.9999962
  0
VERTEX
  5
206
  8
Layer_1
  10
310
  20
0.99999619
  0
VERTEX
  5
207
  8
Layer_1
  10
316
  20
0.99999523
  0
VERTEX
  5
208
  8
Layer_1
  10
316
  20
3.9999952
  0
VERTEX
  5
209
  8
Layer_1
  10
322
  20
3.9999943
  0
VERTEX
  5
20a
  8
Layer_1
  10
322
  20
0.99999428
  0
VERTEX
  5
20b
  8
Layer_1
  10
328
  20
0.99999428
  0
VERTEX
  5
20c
  8
Layer_1
  10
328
  20
3.9999943
  0
VERTEX
  5
20d
  8
Layer_1
  10
336
  20
3.9999933
  0
VERTEX
  5
20e
  8
Layer_1
  10
336
  20
11.999994
  0
VERTEX
  5
20f
  8
Layer_1
  10
339
  20
11.999992
  0
VERTEX
  5
210
  8
Layer_1
  10
339
  20
17.999992
  0
VERTEX
  5
211
  8
Layer_1
  10
336
  20
17.999994
  0
VERTEX
  5
212
  8
Layer_1
  10
336
  20
23.999992
  0
VERTEX
  5
213
  8
Layer_1
  10
339
  20
23.999992
  0
VERTEX
  5
214
  8
Layer_1
  10
339
  20
29.999992
  0
VERTEX
  5
215
  8
Layer_1
  10
336
  20
29.999992
  0
VERTEX
  5
216
  8
Layer_1
  10
336
  20
35.999992
  0
VERTEX
  5
217
  8
Layer_1
  10
339
  20
35.999992
  0
VERTEX
  5
218
  8
Layer_1
  10
339
  20
41.999992
  0
VERTEX
  5
219
  8
Layer_1
  10
336
  20
41.999992
  0
VERTEX
  5
21a
  8
Layer_1
  10
336
  20
47.999992
  0
VERTEX
  5
21b
  8
Layer_1
  10
339
  20
47.999992
  0
VERTEX
  5
21c
  8
Layer_1
  10
339
  20
53.999992
  0
VERTEX
  5
21d
  8
Layer_1
  10
336
  20
53.999992
  0
VERTEX
  5
21e
  8
Layer_1
  10
336
  20
59.999992
  0
VERTEX
  5
21f
  8
Layer_1
  10
339
  20
59.999992
  0
VERTEX
  5
220
  8
Layer_1
  10
339
  20
65.999992
  0
VERTEX
  5
221
  8
Layer_1
  10
336
  20
65.999992
  0
VERTEX
  5
222
  8
Layer_1
  10
336
  20
71.999992
  0
VERTEX
  5
223
  8
Layer_1
  10
339
  20
71.999992
  0
VERTEX
  5
224
  8
Layer_1
  10
339
  20
77.999992
  0
VERTEX
  5
225
  8
Layer_1
  10
336
  20
77.999992
  0
VERTEX
  5
226
  8
Layer_1
  10
336
  20
83.999992
  0
VERTEX
  5
227
  8
Layer_1
  10
339
  20
83.999992
  0
VERTEX
  5
228
  8
Layer_1
  10
339
  20
89.999992
  0
VERTEX
  5
229
  8
Layer_1
  10
336
  20
89.999992
  0
VERTEX
  5
22a
  8
Layer_1
  10
336
  20
97.999992
  0
SEQEND
  0
POLYLINE
  5
22c
  8
Layer_1
  62
1
  66
1
  10
0
  20
0
  30
0
  0
VERTEX
  5
22c
  8
Layer_1
  10
300
  20
56.499992
  0
VERTEX
  5
22d
  8
Layer_1
  10
278
  20
56.499992
  0
VERTEX
  5
22e
  8
Layer_1
  10
278
  20
78.499992
  0
VERTEX
  5
22f
  8
Layer_1
  10
300
  20
78.499992
  0
VERTEX
  5
230
  8
Layer_1
  10
300
  20
56.499992
  0
SEQEND
  0
POLYLINE
  5
232
  8
Layer_1
  62
1
  66
1
  10
0
  20
0
  30
0
  0
VERTEX
  5
232
  8
Layer_1
  10
111.0406
  20
2.9829712
  0
VERTEX
  5
233
  8
Layer_1
  10
111.03816
  20
5.9829712
  0
VERTEX
  5
234
  8
Layer_1
  10
117.03816
  20
5.9878387
  0
VERTEX
  5
235
  8
Layer_1
  10
117.04059
  20
2.9878387
  0
VERTEX
  5
236
  8
Layer_1
  10
123.04059
  20
2.9927063
  0
VERTEX
  5
237
  8
Layer_1
  10
123.03816
  20
5.9927063
  0
VERTEX
  5
238
  8
Layer_1
  10
129.03816
  20
5.9975739
  0
VERTEX
  5
239
  8
Layer_1
  10
129.04059
  20
2.9975739
  0
VERTEX
  5
23a
  8
Layer_1
  10
135.04059
  20
3.0024567
  0
VERTEX
  5
23b
  8
Layer_1
  10
135.03816
  20
6.0024567
  0
VERTEX
  5
23c
  8
Layer_1
  10
141.03816
  20
6.0073242
  0
VERTEX
  5
23d
  8
Layer_1
  10
141.04059
  20
3.0073242
  0
VERTEX
  5
23e
  8
Layer_1
  10
147.04059
  20
3.0121918
  0
VERTEX
  5
23f
  8
Layer_1
  10
147.03816
  20
6.0121918
  0
VERTEX
  5
240
  8
Layer_1
  10
153.03815
  20
6.0170593
  0
VERTEX
  5
241
  8
Layer_1
  10
153.04057
  20
3.0170593
  0
VERTEX
  5
242
  8
Layer_1
  10
159.54057
  20
3.0223389
  0
VERTEX
  5
243
  8
Layer_1
  10
159.53165
  20
14.022339
  0
VERTEX
  5
244
  8
Layer_1
  10
156.53165
  20
14.019897
  0
VERTEX
  5
245
  8
Layer_1
  10
156.52678
  20
20.019882
  0
VERTEX
  5
246
  8
Layer_1
  10
159.52678
  20
20.022324
  0
VERTEX
  5
247
  8
Layer_1
  10
159.52191
  20
26.022324
  0
VERTEX
  5
248
  8
Layer_1
  10
156.52191
  20
26.019882
  0
VERTEX
  5
249
  8
Layer_1
  10
156.51704
  20
32.019882
  0
VERTEX
  5
24a
  8
Layer_1
  10
159.51704
  20
32.022324
  0
VERTEX
  5
24b
  8
Layer_1
  10
159.51218
  20
38.022324
  0
VERTEX
  5
24c
  8
Layer_1
  10
156.51218
  20
38.019882
  0
VERTEX
  5
24d
  8
Layer_1
  10
156.50729
  20
44.019882
  0
VERTEX
  5
24e
  8
Layer_1
  10
159.50729
  20
44.022324
  0
VERTEX
  5
24f
  8
Layer_1
  10
159.50243
  20
50.022324
  0
VERTEX
  5
250
  8
Layer_1
  10
156.50243
  20
50.019882
  0
VERTEX
  5
251
  8
Layer_1
  10
156.49756
  20
56.019882
  0
VERTEX
  5
252
  8
Layer_1
  10
159.49756
  20
56.022324
  0
VERTEX
  5
253
  8
Layer_1
  10
159.49269
  20
62.022308
  0
VERTEX
  5
254
  8
Layer_1
  10
156.49269
  20
62.019867
  0
VERTEX
  5
255
  8
Layer_1
  10
156.48782
  20
68.019867
  0
VERTEX
  5
256
  8
Layer_1
  10
159.48782
  20
68.022308
  0
VERTEX
  5
257
  8
Layer_1
  10
159.48296
  20
74.022308
  0
VERTEX
  5
258
  8
Layer_1
  10
156.48296
  20
74.019867
  0
VERTEX
  5
259
  8
Layer_1
  10
156.47809
  20
80.019867
  0
VERTEX
  5
25a
  8
Layer_1
  10
159.47809
  20
80.022308
  0
VERTEX
  5
25b
  8
Layer_1
  10
159.47321
  20
86.022308
  0
VERTEX
  5
25c
  8
Layer_1
  10
156.47321
  20
86.019867
  0
VERTEX
  5
25d
  8
Layer_1
  10
156.46834
  20
92.019859
  0
VERTEX
  5
25e
  8
Layer_1
  10
159.46834
  20
92.022301
  0
VERTEX
  5
25f
  8
Layer_1
  10
159.45941
  20
103.0223
  0
VERTEX
  5
260
  8
Layer_1
  10
152.95941
  20
103.01702
  0
VERTEX
  5
261
  8
Layer_1
  10
152.96185
  20
100.01702
  0
VERTEX
  5
262
  8
Layer_1
  10
146.96187
  20
100.01215
  0
VERTEX
  5
263
  8
Layer_1
  10
146.95943
  20
103.01215
  0
VERTEX
  5
264
  8
Layer_1
  10
140.95943
  20
103.00728
  0
VERTEX
  5
265
  8
Layer_1
  10
140.96187
  20
100.00728
  0
VERTEX
  5
266
  8
Layer_1
  10
134.96187
  20
100.00241
  0
VERTEX
  5
267
  8
Layer_1
  10
134.95943
  20
103.00241
  0
VERTEX
  5
268
  8
Layer_1
  10
128.95943
  20
102.99754
  0
VERTEX
  5
269
  8
Layer_1
  10
128.96187
  20
99.997543
  0
VERTEX
  5
26a
  8
Layer_1
  10
122.96185
  20
99.992676
  0
VERTEX
  5
26b
  8
Layer_1
  10
122.95943
  20
102.99268
  0
VERTEX
  5
26c
  8
Layer_1
  10
116.95943
  20
102.9878
  0
VERTEX
  5
26d
  8
Layer_1
  10
116.96185
  20
99.987801
  0
VERTEX
  5
26e
  8
Layer_1
  10
110.96187
  20
99.982933
  0
VERTEX
  5
26f
  8
Layer_1
  10
110.95943
  20
102.98293
  0
VERTEX
  5
270
  8
Layer_1
  10
104.45943
  20
102.97765
  0
VERTEX
  5
271
  8
Layer_1
  10
104.4716
  20
87.977661
  0
VERTEX
  5
272
  8
Layer_1
  10
122.9716
  20
87.992683
  0
VERTEX
  5
273
  8
Layer_1
  10
123.02841
  20
17.992691
  0
VERTEX
  5
274
  8
Layer_1
  10
104.52843
  20
17.977676
  0
VERTEX
  5
275
  8
Layer_1
  10
104.5406
  20
2.9776917
  0
VERTEX
  5
276
  8
Layer_1
  10
111.0406
  20
2.9829712
  0
SEQEND
  0
CIRCLE
  5
278
  8
Layer_1
  62
1
  10
136.52861
  20
17.753662
  30
0
  40
3.9999998
  0
CIRCLE
  5
278
  8
Layer_1
  62
1
  10
136.47748
  20
80.753647
  30
0
  40
6.2499995
  0
CIRCLE
  5
278
  8
Layer_1
  62
1
  10
136.5002
  20
52.753662
  30
0
  40
6.2499995
  0
POLYLINE
  5
278
  8
Layer_0
  62
0
  66
1
  10
0
  20
0
  30
0
  0
VERTEX
  5
278
  8
Layer_0
  10
150.38385
  20
55.641766
  0
VERTEX
  5
279
  8
Layer_0
  10
145.8148
  20
54.08532
  0
VERTEX
  5
27a
  8
Layer_0
  10
145.81532
  20
53.444206
  0
VERTEX
  5
27b
  8
Layer_0
  10
150.31024
  20
51.887798
  0
VERTEX
  5
27c
  8
Layer_0
  10
145.81659
  20
51.884151
  0
VERTEX
  5
27d
  8
Layer_0
  10
145.81715
  20
51.199581
  0
VERTEX
  5
27e
  8
Layer_0
  10
151.18581
  20
51.203938
  0
VERTEX
  5
27f
  8
Layer_0
  10
151.18503
  20
52.159504
  42
0.0056134645
  0
VERTEX
  5
280
  8
Layer_0
  10
146.75166
  20
53.67495
  0
VERTEX
  5
281
  8
Layer_0
  10
146.58755
  20
53.727062
  0
VERTEX
  5
282
  8
Layer_0
  10
146.91805
  20
53.831821
  42
0.0032555929
  0
VERTEX
  5
283
  8
Layer_0
  10
151.18251
  20
55.257648
  0
VERTEX
  5
284
  8
Layer_0
  10
151.18164
  20
56.326981
  0
VERTEX
  5
285
  8
Layer_0
  10
145.81299
  20
56.322624
  0
VERTEX
  5
286
  8
Layer_0
  10
145.81355
  20
55.638054
  0
VERTEX
  5
287
  8
Layer_0
  10
150.38385
  20
55.641766
  0
SEQEND
  0
POLYLINE
  5
289
  8
Layer_0
  62
0
  66
1
  10
0
  20
0
  30
0
  0
VERTEX
  5
289
  8
Layer_0
  10
148.32228
  20
82.158752
  0
VERTEX
  5
28a
  8
Layer_0
  10
148.32455
  20
79.368225
  0
VERTEX
  5
28b
  8
Layer_0
  10
145.79428
  20
79.366173
  0
VERTEX
  5
28c
  8
Layer_0
  10
145.79485
  20
78.655724
  0
VERTEX
  5
28d
  8
Layer_0
  10
151.1635
  20
78.66008
  0
VERTEX
  5
28e
  8
Layer_0
  10
151.16293
  20
79.370529
  0
VERTEX
  5
28f
  8
Layer_0
  10
148.95834
  20
79.368744
  0
VERTEX
  5
290
  8
Layer_0
  10
148.95607
  20
82.159271
  0
VERTEX
  5
291
  8
Layer_0
  10
151.16066
  20
82.161057
  0
VERTEX
  5
292
  8
Layer_0
  10
151.16008
  20
82.871506
  0
VERTEX
  5
293
  8
Layer_0
  10
145.79143
  20
82.867149
  0
VERTEX
  5
294
  8
Layer_0
  10
145.79201
  20
82.1567
  0
VERTEX
  5
295
  8
Layer_0
  10
148.32228
  20
82.158752
  0
SEQEND
  0
POLYLINE
  5
297
  8
Layer_0
  62
0
  66
1
  10
0
  20
0
  30
0
  0
VERTEX
  5
297
  8
Layer_0
  10
149.32262
  20
20.621462
  0
VERTEX
  5
298
  8
Layer_0
  10
149.32239
  20
20.904665
  0
VERTEX
  5
299
  8
Layer_0
  10
149.20563
  20
20.971954
  42
-0.13080124
  0
VERTEX
  5
29a
  8
Layer_0
  10
148.42311
  20
21.939093
  0
VERTEX
  5
29b
  8
Layer_0
  10
147.99831
  20
21.938747
  42
0.087784281
  0
VERTEX
  5
29c
  8
Layer_0
  10
148.52881
  20
21.060272
  0
VERTEX
  5
29d
  8
Layer_0
  10
145.72852
  20
21.057999
  0
VERTEX
  5
29e
  8
Layer_0
  10
145.72887
  20
20.618546
  0
VERTEX
  5
29f
  8
Layer_0
  10
149.32262
  20
20.621462
  0
SEQEND
  0
POLYLINE
  5
2a1
  8
Layer_0
  62
0
  66
1
  10
0
  20
0
  30
0
  0
VERTEX
  5
2a1
  8
Layer_0
  10
146.15404
  20
17.164299
  0
VERTEX
  5
2a2
  8
Layer_0
  10
146.15262
  20
18.91967
  0
VERTEX
  5
2a3
  8
Layer_0
  10
146.27182
  20
18.83676
  42
-0.028076734
  0
VERTEX
  5
2a4
  8
Layer_0
  10
147.1994
  20
17.821398
  0
VERTEX
  5
2a5
  8
Layer_0
  10
147.3465
  20
17.668686
  42
0.14591737
  0
VERTEX
  5
2a6
  8
Layer_0
  10
148.11885
  20
17.192751
  42
0.38483182
  0
VERTEX
  5
2a7
  8
Layer_0
  10
149.2536
  20
17.825996
  42
0.25008979
  0
VERTEX
  5
2a8
  8
Layer_0
  10
149.0592
  20
19.100252
  42
0.19730236
  0
VERTEX
  5
2a9
  8
Layer_0
  10
148.28841
  20
19.448748
  0
VERTEX
  5
2aa
  8
Layer_0
  10
148.24239
  20
18.997049
  0
VERTEX
  5
2ab
  8
Layer_0
  10
148.40158
  20
18.984484
  42
-0.39376019
  0
VERTEX
  5
2ac
  8
Layer_0
  10
148.96074
  20
18.296949
  42
-0.20642788
  0
VERTEX
  5
2ad
  8
Layer_0
  10
148.79654
  20
17.826017
  42
-0.20642778
  0
VERTEX
  5
2ae
  8
Layer_0
  10
148.34117
  20
17.622618
  42
-0.18073291
  0
VERTEX
  5
2af
  8
Layer_0
  10
147.66023
  20
17.953609
  42
-0.026263263
  0
VERTEX
  5
2b0
  8
Layer_0
  10
146.76392
  20
18.947021
  0
VERTEX
  5
2b1
  8
Layer_0
  10
146.63295
  20
19.079241
  42
0.19747429
  0
VERTEX
  5
2b2
  8
Layer_0
  10
145.72975
  20
19.529678
  0
VERTEX
  5
2b3
  8
Layer_0
  10
145.73167
  20
17.163958
  0
VERTEX
  5
2b4
  8
Layer_0
  10
146.15404
  20
17.164299
  0
SEQEND
  0
POLYLINE
  5
2b6
  8
Layer_0
  62
0
  70
1
  66
1
  10
0
  20
0
  30
0
  0
VERTEX
  5
2b6
  8
Layer_0
  10
149.31367
  20
13.588249
  0
VERTEX
  5
2b7
  8
Layer_0
  10
149.31328
  20
14.071649
  42
0.0089152504
  0
VERTEX
  5
2b8
  8
Layer_0
  10
146.41936
  20
15.139124
  0
VERTEX
  5
2b9
  8
Layer_0
  10
146.12631
  20
15.22873
  0
VERTEX
  5
2ba
  8
Layer_0
  10
146.40944
  20
15.313921
  42
0.00776489
  0
VERTEX
  5
2bb
  8
Layer_0
  10
149.31143
  20
16.34948
  0
VERTEX
  5
2bc
  8
Layer_0
  10
149.31102
  20
16.862175
  0
VERTEX
  5
2bd
  8
Layer_0
  10
145.73305
  20
15.472551
  0
VERTEX
  5
2be
  8
Layer_0
  10
145.73344
  20
14.986712
  0
SEQEND
  0
ENDSEC
  0
EOF
